<?xml version="1.0" encoding="iso-8859-1"?>
<!-- Generator: Adobe Illustrator 19.0.0, SVG Export Plug-In . SVG Version: 6.00 Build 0)  -->
<svg version="1.1" id="Capa_1" xmlns="http://www.w3.org/2000/svg" xmlns:xlink="http://www.w3.org/1999/xlink" x="0px" y="0px"
	 viewBox="0 0 480 480" style="enable-background:new 0 0 480 480;" xml:space="preserve">
<g>
	<g>
		<path d="M247.923,216h-16c-4.418,0-8-3.582-8-8v-8c0-4.418,3.582-8,8-8h16c4.418,0,8,3.582,8,8h16c0-13.255-10.745-24-24-24v-16
			h-16v16c-13.255,0-24,10.745-24,24v8c0,13.255,10.745,24,24,24h16c4.418,0,8,3.582,8,8v8c0,4.418-3.582,8-8,8h-16
			c-4.418,0-8-3.582-8-8h-16c0,13.255,10.745,24,24,24v16h16v-16c13.255,0,24-10.745,24-24v-8
			C271.923,226.745,261.178,216,247.923,216z"/>
	</g>
</g>
<g>
	<g>
		<path d="M321.875,125.776c12.027-5.572,17.259-19.839,11.687-31.865c-3.909-8.438-12.34-13.857-21.639-13.911h-6.24l7.544-37.704
			c3.826-19.155-8.6-37.785-27.755-41.611c-2.278-0.455-4.595-0.684-6.917-0.685c-11.496-0.035-22.527,4.535-30.632,12.688
			c-4.475,4.279-11.525,4.279-16,0C223.818,4.535,212.787-0.034,201.291,0c-19.533,0.006-35.363,15.846-35.357,35.379
			c0.001,2.323,0.23,4.64,0.685,6.917L174.163,80h-6.24c-13.255,0.076-23.938,10.882-23.863,24.137
			c0.053,9.299,5.473,17.73,13.911,21.639c-29.105,24.332-45.962,60.288-46.048,98.224
			c-0.056,70.692,57.206,128.045,127.899,128.101c70.692,0.056,128.045-57.206,128.101-127.899
			C367.953,186.183,351.08,150.118,321.875,125.776z M197.476,16.383c1.256-0.253,2.534-0.382,3.815-0.383
			c7.248-0.022,14.203,2.859,19.312,8c10.815,10.306,27.817,10.306,38.632,0c5.113-5.14,12.07-8.02,19.32-8
			c10.697,0.009,19.36,8.688,19.351,19.385c-0.001,1.281-0.129,2.559-0.383,3.815l-8.16,40.8h-98.88l-8.16-40.8
			C180.207,28.715,186.991,18.499,197.476,16.383z M167.923,96h144c4.418,0,8,3.582,8,8s-3.582,8-8,8h-144c-4.418,0-8-3.582-8-8
			S163.505,96,167.923,96z M239.976,336.053c-61.856,0.029-112.024-50.091-112.053-111.947c-0.019-39.37,20.635-75.859,54.4-96.107
			h115.2c33.678,20.281,54.308,56.687,54.4,96C351.952,285.856,301.832,336.024,239.976,336.053z"/>
	</g>
</g>
<g>
	<g>
		<path d="M415.363,361.064L415.363,361.064c-5.791-5.89-13.733-9.163-21.992-9.064c-8.244-0.041-16.157,3.24-21.952,9.104
			C360.595,372,339.611,392.992,332.603,400h-36.68c0-17.673-14.327-32-32-32h-40c-1.731,0-3.415,0.561-4.8,1.6L189.259,392h-37.336
			v-8c0-4.418-3.582-8-8-8h-80c-4.418,0-8,3.582-8,8v88c0,4.418,3.582,8,8,8h80c4.418,0,8-3.582,8-8v-8h180.12
			c14.86,0.04,29.117-5.868,39.592-16.408l43.68-43.68C426.979,392.019,427.001,372.984,415.363,361.064z M135.923,464h-64v-72h64
			V464z M404.003,392.6l-43.68,43.68c-7.483,7.527-17.666,11.747-28.28,11.72h-180.12v-40h40c1.731,0,3.415-0.561,4.8-1.6
			l29.864-22.4h37.336c8.837,0,16,7.163,16,16s-7.163,16-16,16h-32v16h32c11.429-0.003,21.989-6.102,27.704-16h44.296
			c2.122,0,4.156-0.844,5.656-2.344c0,0,28.064-28.072,41.192-41.288c2.906-2.888,6.864-4.466,10.96-4.368
			c3.846-0.013,7.534,1.531,10.224,4.28c2.789,2.861,4.276,6.744,4.112,10.736C408.015,386.619,406.557,390.059,404.003,392.6z"/>
	</g>
</g>
<g>
	<g>
		<rect x="103.923" y="432" width="16" height="16"/>
	</g>
</g>
<g>
</g>
<g>
</g>
<g>
</g>
<g>
</g>
<g>
</g>
<g>
</g>
<g>
</g>
<g>
</g>
<g>
</g>
<g>
</g>
<g>
</g>
<g>
</g>
<g>
</g>
<g>
</g>
<g>
</g>
</svg>
